<?xml version="1.0" standalone="no"?>
<!DOCTYPE svg PUBLIC "-//W3C//DTD SVG 20010904//EN"
 "http://www.w3.org/TR/2001/REC-SVG-20010904/DTD/svg10.dtd">
<svg version="1.0" xmlns="http://www.w3.org/2000/svg"
 width="1024.000000pt" height="1024.000000pt" viewBox="0 0 1024.000000 1024.000000"
 preserveAspectRatio="xMidYMid meet">

<g transform="translate(0.000000,1024.000000) scale(0.100000,-0.100000)"
fill="#000000" stroke="none">
<path d="M4840 8285 c-14 -2 -90 -9 -170 -15 -163 -12 -422 -45 -520 -65 -194
-40 -309 -67 -369 -86 -104 -33 -235 -81 -247 -90 -6 -5 -41 -18 -78 -29 -36
-12 -95 -38 -129 -58 -34 -20 -74 -43 -89 -52 -15 -8 -60 -33 -101 -56 -40
-22 -117 -74 -171 -115 -54 -41 -111 -83 -126 -94 -27 -20 -112 -99 -213 -200
-67 -66 -190 -222 -251 -315 -26 -41 -65 -100 -86 -130 -20 -30 -42 -72 -49
-92 -7 -20 -22 -52 -34 -70 -86 -130 -222 -557 -268 -843 -47 -297 -63 -747
-35 -1010 30 -281 78 -535 126 -660 l11 -29 25 29 c13 17 31 46 40 65 8 19 28
49 43 65 15 17 43 53 61 80 38 57 44 65 142 195 95 126 159 204 170 208 5 2
24 27 42 55 19 29 57 76 85 105 28 29 51 57 51 62 0 5 35 48 78 95 42 47 106
118 141 158 101 115 235 257 386 410 145 147 175 181 199 232 24 49 111 191
143 232 17 21 38 54 48 73 10 19 45 62 79 95 34 33 75 76 92 96 17 20 57 55
90 78 32 22 75 54 94 70 98 83 430 220 623 257 48 9 83 24 118 49 27 19 53 35
57 35 4 0 39 19 78 43 39 23 87 50 107 61 20 10 45 27 57 38 11 10 37 25 58
32 35 13 127 62 279 150 34 20 68 36 75 36 7 1 65 28 128 60 166 86 194 99
232 107 18 3 35 10 38 14 6 9 228 114 262 124 13 4 52 20 88 35 121 52 370
150 383 150 6 0 59 18 117 41 58 22 117 46 133 51 15 6 27 13 27 17 0 5 -108
41 -452 152 -71 23 -301 72 -438 93 -308 47 -441 57 -800 61 -195 2 -366 2
-380 0z"/>
<path d="M7535 7693 c-102 -30 -264 -81 -290 -93 -11 -5 -85 -29 -165 -55
-147 -47 -255 -87 -300 -110 -14 -7 -67 -27 -119 -44 -51 -17 -99 -35 -105
-39 -6 -5 -45 -22 -86 -37 -41 -16 -82 -35 -91 -42 -8 -7 -22 -13 -30 -13 -8
0 -46 -15 -84 -34 -39 -18 -81 -37 -95 -41 -14 -3 -93 -40 -176 -81 -83 -41
-156 -74 -162 -74 -7 0 -46 -17 -88 -38 l-75 -39 68 -17 c37 -10 87 -22 110
-27 24 -4 55 -15 70 -22 16 -8 46 -17 68 -21 43 -8 235 -97 274 -128 14 -10
44 -27 67 -38 24 -10 58 -33 77 -52 36 -35 111 -98 132 -110 6 -4 32 -38 57
-75 25 -37 56 -77 68 -88 24 -21 90 -149 90 -173 0 -16 -2 -16 125 17 80 22
469 148 621 202 44 16 86 29 92 29 12 0 118 33 157 49 36 15 89 32 180 61 50
15 108 35 130 44 22 8 49 15 59 16 10 0 37 8 60 19 57 25 129 51 206 71 64 17
77 22 153 55 l39 16 -43 47 c-24 26 -54 55 -68 64 -28 19 -253 234 -518 496
-90 89 -168 162 -173 162 -5 0 -42 37 -82 83 l-74 83 -79 -23z"/>
<path d="M3293 5101 c-40 -42 -86 -94 -102 -116 -16 -22 -46 -53 -66 -69 -20
-15 -52 -52 -71 -81 -18 -30 -42 -60 -51 -67 -10 -7 -40 -40 -68 -73 -27 -33
-52 -62 -55 -65 -3 -3 -25 -32 -50 -65 -24 -33 -61 -78 -81 -100 -20 -22 -44
-56 -54 -75 -10 -19 -40 -59 -67 -89 -27 -29 -56 -67 -65 -85 -9 -17 -22 -35
-28 -41 -17 -14 -95 -122 -95 -132 0 -4 -12 -21 -26 -38 -14 -16 -35 -45 -46
-65 -12 -19 -44 -60 -70 -89 -64 -73 -64 -98 0 -199 26 -41 63 -93 83 -116 20
-23 46 -60 58 -83 12 -24 46 -69 77 -100 31 -32 63 -70 72 -85 9 -16 19 -28
22 -28 3 0 49 -43 103 -95 53 -52 110 -103 127 -113 16 -11 49 -37 73 -59 24
-22 59 -48 78 -58 19 -10 54 -32 79 -49 84 -59 223 -136 246 -136 7 0 39 -15
71 -34 32 -18 90 -43 128 -56 39 -12 84 -28 100 -35 42 -18 119 -40 190 -55
33 -7 69 -16 80 -20 30 -13 155 -39 195 -42 19 -1 40 -4 45 -7 6 -3 12 -6 15
-7 3 0 16 -3 30 -6 23 -6 188 -28 250 -33 14 -2 70 -9 125 -16 129 -16 946
-18 1090 -2 229 26 365 44 440 59 44 9 112 20 150 25 39 5 81 14 95 19 14 5
36 12 50 14 91 17 178 39 237 60 37 13 82 27 98 32 37 9 33 8 80 28 137 60
173 75 200 82 33 8 192 89 216 110 8 8 23 14 32 14 9 0 19 4 22 10 3 5 30 21
60 34 29 14 68 38 86 54 19 16 45 35 59 42 34 17 99 65 178 130 37 30 87 71
112 91 25 20 64 55 87 78 23 22 63 57 90 77 26 20 62 51 78 69 17 18 58 54 92
79 34 25 70 57 79 71 10 15 43 44 74 65 32 22 72 58 90 80 18 22 58 59 90 80
32 22 66 50 77 62 10 13 35 37 55 55 42 36 41 37 -34 60 -29 8 -57 18 -63 22
-5 5 -64 27 -130 50 -66 23 -133 48 -150 56 -16 7 -64 23 -105 36 -41 12 -79
24 -85 28 -15 9 -132 50 -201 71 -34 10 -72 24 -85 31 -13 7 -33 14 -44 16
-11 2 -29 7 -40 13 -11 5 -36 13 -55 19 -19 5 -73 23 -120 41 -47 17 -107 38
-133 45 -26 7 -53 18 -60 23 -7 5 -48 19 -92 31 -72 20 -116 36 -255 91 -25
10 -60 20 -79 22 -39 3 -33 11 -101 -135 -22 -49 -58 -107 -79 -130 -21 -23
-50 -63 -65 -88 -14 -25 -50 -66 -79 -90 -28 -23 -67 -60 -85 -80 -18 -21 -58
-52 -90 -70 -31 -18 -72 -44 -90 -57 -18 -14 -54 -36 -80 -49 -26 -12 -61 -31
-77 -41 -17 -11 -48 -22 -70 -26 -22 -4 -58 -16 -81 -26 -22 -10 -76 -28 -120
-40 -43 -12 -104 -29 -134 -37 -141 -40 -544 -56 -805 -33 -116 10 -262 37
-355 65 -25 7 -65 19 -90 25 -25 6 -74 24 -110 40 -36 15 -89 37 -118 49 -29
11 -65 30 -80 41 -48 37 -126 89 -157 105 -43 21 -226 200 -261 255 -16 25
-34 48 -40 52 -6 4 -28 35 -49 70 -21 35 -46 72 -55 83 -9 11 -25 43 -35 70
-10 28 -26 68 -35 90 -49 112 -89 277 -110 454 -5 46 -11 85 -12 86 -2 2 -35
-32 -75 -74z"/>
<path d="M10080 80 l0 -80 80 0 80 0 0 80 0 80 -80 0 -80 0 0 -80z"/>
</g>
</svg>
